<?xml version="1.0" encoding="utf-8"?>
<!-- Generator: Adobe Illustrator 24.2.3, SVG Export Plug-In . SVG Version: 6.00 Build 0)  -->
<svg version="1.1" id="bold" xmlns="http://www.w3.org/2000/svg" xmlns:xlink="http://www.w3.org/1999/xlink" x="0px" y="0px"
	 viewBox="0 0 512 512" style="enable-background:new 0 0 512 512;" xml:space="preserve">
<style type="text/css">
	.st0{fill:#F0FCFC;}
	.st1{fill:#635BFF;}
	.st2{fill:#00D4FF;}
</style>
<path class="st0" d="M416,512H96c-53,0-96-43-96-96V96C0,43,43,0,96,0h320c53,0,96,43,96,96v320C512,469,469,512,416,512z"/>
<path class="st1" d="M372.6,134.8c-43.9-0.8-93.9,22.1-125.6,57.7c-30.3,0.6-59.7,13-81.4,34.7c-1.3,1.2-1.7,3.1-1.2,4.8
	c0.6,1.7,2,2.9,3.8,3.2l36.1,5.2l-4.5,5c-1.7,1.9-1.6,4.7,0.2,6.4l60.2,60.2c0.9,0.9,2.1,1.4,3.3,1.4c1.1,0,2.2-0.4,3.1-1.2l5-4.5
	l5.2,36.1c0.3,1.8,1.6,3,3.3,3.6c0.4,0.1,0.9,0.2,1.3,0.2c1.3,0,2.7-0.6,3.6-1.5c21.4-21.4,33.8-50.9,34.4-81.1
	c35.6-31.7,58.7-81.7,57.7-125.6C377.1,136.9,375.1,134.9,372.6,134.8L372.6,134.8z M329.5,215.6c-4.6,4.6-10.6,6.8-16.5,6.8
	c-6,0-12-2.3-16.6-6.8c-9.1-9.1-9.1-24,0-33.1c9.1-9.1,24-9.1,33.1,0C338.6,191.6,338.6,206.5,329.5,215.6z"/>
<path class="st2" d="M166.6,293.4c-12.5,12.5-29.6,68.9-31.5,75.3c-0.6,2.1-0.1,4.3,1.5,5.8c1.1,1.1,2.6,1.7,4.1,1.7
	c0.6,0,1.1-0.1,1.7-0.2c6.4-1.9,62.8-19.1,75.3-31.6c14.1-14.1,14.1-37,0-51C203.5,279.3,180.6,279.3,166.6,293.4L166.6,293.4z"/>
</svg>
