<?xml version="1.0" encoding="utf-8"?>
<!-- Generator: Adobe Illustrator 24.2.3, SVG Export Plug-In . SVG Version: 6.00 Build 0)  -->
<svg version="1.1" id="Layer_1" xmlns="http://www.w3.org/2000/svg" xmlns:xlink="http://www.w3.org/1999/xlink" x="0px" y="0px"
	 viewBox="0 0 512 512" style="enable-background:new 0 0 512 512;" xml:space="preserve">
<style type="text/css">
	.st0{fill:#F0FCFC;}
	.st1{fill:#635BFF;}
	.st2{fill:#00D4FF;}
</style>
<path class="st0" d="M416,512H96c-53,0-96-43-96-96V96C0,43,43,0,96,0h320c53,0,96,43,96,96v320C512,469,469,512,416,512z"/>
<path class="st1" d="M299.9,384c-0.5,0-1.1,0-1.6-0.1c-90.5-7-163.7-80.2-170.3-170.2c-0.4-5.6,1.5-11.1,5.3-15.2
	c3.7-4,8.8-6.3,14.4-6.3l36.8-0.3c9.2,0,17.1,6.1,19.3,14.9l7.7,30.5c2,7.7-0.9,15.8-7.4,20.6l-13.3,9.9
	c12.3,21.8,30.6,40.2,52.5,52.8l10.3-13.6c4.8-6.3,12.8-9.2,20.6-7.3l30.7,7.6c8.8,2.2,15,10.1,15,19.1v37.7
	c0,5.5-2.2,10.6-6.3,14.4C310,382.1,305,384,299.9,384L299.9,384z"/>
<path class="st2" d="M288,128c-35.5,0-66.5,19.4-83.1,48.1c9.5,5.4,16.7,14.5,19.5,25.6l7.7,30.5c3.8,14.9-1.1,30.5-12.4,40.6
	c5.6,7,11.9,13.4,18.9,19c7.8-8.8,19.1-13.9,30.8-13.9c3.3,0,6.7,0.4,9.9,1.2l30.8,7.6c11.5,2.8,20.8,10.3,26.2,20.1
	c28.5-16.7,47.7-47.6,47.7-82.9C384,171.1,340.9,128,288,128L288,128z M280,240c4.4,0,8,3.6,8,8s-3.6,8-8,8h-26.7c-4.4,0-8-3.6-8-8
	v-17.3c0-11,9-20,20-20c3.7,0,6.7-3,6.7-6.7s-3-6.7-6.7-6.7h-12c-4.4,0-8-3.6-8-8s3.6-8,8-8h12c12.5,0,22.7,10.2,22.7,22.7
	s-10.2,22.7-22.7,22.7c-2.2,0-4,1.8-4,4v9.3H280z M341.3,248c0,4.4-3.6,8-8,8s-8-3.6-8-8v-21.3h-8c-10.3,0-18.7-8.4-18.7-18.7v-18.7
	c0-4.4,3.6-8,8-8s8,3.6,8,8V208c0,1.5,1.2,2.7,2.7,2.7h8v-21.3c0-4.4,3.6-8,8-8s8,3.6,8,8V248z"/>
</svg>
