<svg xmlns="http://www.w3.org/2000/svg" xmlns:xlink="http://www.w3.org/1999/xlink" viewBox="0 0 497.08 362.4"><defs><style>.cls-1{isolation:isolate;}.cls-2{fill:url(#linear-gradient);}.cls-3,.cls-5{mix-blend-mode:multiply;}.cls-3{fill:url(#linear-gradient-2);}.cls-4{fill:url(#linear-gradient-3);}.cls-5{fill:url(#linear-gradient-4);}</style><linearGradient id="linear-gradient" x1="255.38" y1="-13.85" x2="-2.76" y2="244.29" gradientUnits="userSpaceOnUse"><stop offset="0" stop-color="#635bff"/><stop offset="0.59" stop-color="#00d4ff"/><stop offset="1" stop-color="#00d4ff"/></linearGradient><linearGradient id="linear-gradient-2" x1="231.6" y1="180.97" x2="158.78" y2="143.14" gradientUnits="userSpaceOnUse"><stop offset="0" stop-color="#635bff"/><stop offset="1" stop-color="#fff"/></linearGradient><linearGradient id="linear-gradient-3" x1="417.43" y1="148.2" x2="159.29" y2="406.34" xlink:href="#linear-gradient"/><linearGradient id="linear-gradient-4" x1="217.08" y1="390.42" x2="303.14" y2="164.39" xlink:href="#linear-gradient-2"/></defs><g class="cls-1"><g id="Layer_1" data-name="Layer 1"><path class="cls-2" d="M291.6,108.52,130.46,253.65,7.92,75h270.8C296.36,75,304.71,96.72,291.6,108.52Z" transform="translate(-7.92 -74.98)"/><path class="cls-3" d="M243.37,108.52C256.47,96.72,248.12,75,230.49,75H7.92L112,226.8Z" transform="translate(-7.92 -74.98)"/><path class="cls-4" d="M505,75,256.46,437.37l-46.31-67.53A92.23,92.23,0,0,1,214.23,260L362.45,75Z" transform="translate(-7.92 -74.98)"/><path class="cls-5" d="M362.45,75,214.23,260a92.23,92.23,0,0,0-4.08,109.81l46.31,67.53C207.3,305,362.45,75,362.45,75Z" transform="translate(-7.92 -74.98)"/></g></g></svg>