<?xml version="1.0" encoding="utf-8"?>
<!-- Generator: Adobe Illustrator 24.2.3, SVG Export Plug-In . SVG Version: 6.00 Build 0)  -->
<svg version="1.1" id="Layer_1" xmlns="http://www.w3.org/2000/svg" xmlns:xlink="http://www.w3.org/1999/xlink" x="0px" y="0px"
	 viewBox="0 0 512 512" style="enable-background:new 0 0 512 512;" xml:space="preserve">
<style type="text/css">
	.st0{fill:#F0FCFC;}
	.st1{fill:#00D4FF;}
	.st2{fill:#635BFF;}
</style>
<path class="st0" d="M416,512H96c-53,0-96-43-96-96V96C0,43,43,0,96,0h320c53,0,96,43,96,96v320C512,469,469,512,416,512z"/>
<path class="st1" d="M307,262.1c0,1.7-1.1,3.2-2.7,3.7l-36.4,12l-12,36.4c-0.5,1.5-2,2.7-3.7,2.7c-1.7,0-3.1-1.1-3.7-2.5l-31.3-82.2
	c-0.2-0.4-0.3-0.9-0.3-1.4c0-2.2,1.8-3.9,3.9-3.9c0.5,0,1,0.1,1.4,0.3l82.2,31.3C305.9,259,307,260.5,307,262.1L307,262.1z"/>
<path class="st2" d="M351.5,137.6h-192c-17.6,0-32,14.4-32,32v170.7c0,17.6,14.4,32,32,32h192c17.6,0,32-14.4,32-32V169.6
	C383.5,152,369.1,137.6,351.5,137.6z M351.5,351h-192c-5.9,0-10.7-4.8-10.7-10.7V191h213.3v149.3C362.2,346.2,357.4,351,351.5,351z"
	/>
</svg>
