<?xml version="1.0" encoding="utf-8"?>
<!-- Generator: Adobe Illustrator 24.2.3, SVG Export Plug-In . SVG Version: 6.00 Build 0)  -->
<svg version="1.1" id="Layer_1" xmlns="http://www.w3.org/2000/svg" xmlns:xlink="http://www.w3.org/1999/xlink" x="0px" y="0px"
	 viewBox="0 0 512 512" style="enable-background:new 0 0 512 512;" xml:space="preserve">
<style type="text/css">
	.st0{fill:#F0FCFC;}
	.st1{fill:#635BFF;}
	.st2{fill:#00D4FF;}
</style>
<path class="st0" d="M416,512H96c-53,0-96-43-96-96V96C0,43,43,0,96,0h320c53,0,96,43,96,96v320C512,469,469,512,416,512z"/>
<path class="st1" d="M352,138.7H160c-17.6,0-32,14.4-32,32v170.7c0,17.6,14.4,32,32,32h192c17.6,0,32-14.4,32-32V170.7
	C384,153,369.6,138.7,352,138.7z M352,352H160c-5.9,0-10.7-4.8-10.7-10.7V192h213.3v149.3C362.7,347.2,357.9,352,352,352z"/>
<path class="st2" d="M295.5,282.3c0.2-1.7,0.5-3.3,0.5-5s-0.3-3.3-0.5-5l9.6-7.3c2.1-1.6,2.8-4.6,1.4-6.9l-8.6-14.9
	c-1.3-2.3-4.2-3.3-6.7-2.2l-11.1,4.7c-2.7-2-5.6-3.9-8.7-5.2l-1.5-11.7c-0.3-2.7-2.6-4.7-5.3-4.7h-17.2c-2.7,0-5,2-5.3,4.7
	l-1.5,11.7c-3.2,1.3-6,3.1-8.7,5.2l-11.1-4.7c-2.5-1-5.3-0.1-6.7,2.2l-8.6,14.9c-1.3,2.3-0.8,5.3,1.4,6.9l9.6,7.3
	c-0.2,1.7-0.5,3.3-0.5,5s0.3,3.3,0.5,5l-9.6,7.3c-2.1,1.6-2.8,4.6-1.4,6.9l8.6,14.9c1.3,2.3,4.2,3.3,6.7,2.2l11.1-4.7
	c2.7,2,5.6,3.9,8.7,5.2l1.5,11.7c0.3,2.7,2.6,4.7,5.3,4.7h17.2c2.7,0,5-2,5.3-4.7l1.5-11.7c3.2-1.3,6-3.1,8.7-5.2l11.1,4.7
	c2.5,1,5.3,0.1,6.7-2.2l8.6-14.9c1.3-2.3,0.8-5.3-1.4-6.9L295.5,282.3z M256,298.7c-11.8,0-21.3-9.6-21.3-21.3
	c0-11.8,9.6-21.3,21.3-21.3c11.7,0,21.3,9.6,21.3,21.3S267.8,298.7,256,298.7z"/>
</svg>
