<?xml version="1.0" encoding="utf-8"?>
<!-- Generator: Adobe Illustrator 24.2.3, SVG Export Plug-In . SVG Version: 6.00 Build 0)  -->
<svg version="1.1" id="bold" xmlns="http://www.w3.org/2000/svg" xmlns:xlink="http://www.w3.org/1999/xlink" x="0px" y="0px"
	 viewBox="0 0 512 512" style="enable-background:new 0 0 512 512;" xml:space="preserve">
<style type="text/css">
	.st0{fill:#F0FCFC;}
	.st1{fill:#635BFF;}
	.st2{fill:#00D4FF;}
</style>
<path class="st0" d="M416,512H96c-53,0-96-43-96-96V96C0,43,43,0,96,0h320c53,0,96,43,96,96v320C512,469,469,512,416,512z"/>
<path class="st1" d="M352,138.7H160c-17.6,0-32,14.4-32,32v170.7c0,17.6,14.4,32,32,32h192c17.6,0,32-14.4,32-32V170.7
	C384,153,369.6,138.7,352,138.7z M352,352H160c-5.9,0-10.7-4.8-10.7-10.7V192h213.3v149.3C362.7,347.2,357.9,352,352,352z"/>
<g>
	<path class="st2" d="M202.7,320c-2.7,0-5.5-1-7.5-3.1c-4.2-4.2-4.2-10.9,0-15.1l24.5-24.5l-24.5-24.5c-4.2-4.2-4.2-10.9,0-15.1
		c4.2-4.2,10.9-4.2,15.1,0l32,32c4.2,4.2,4.2,10.9,0,15.1l-32,32C208.1,319,205.4,320,202.7,320z"/>
	<path class="st2" d="M309.3,320h-42.7c-5.9,0-10.7-4.8-10.7-10.7s4.8-10.7,10.7-10.7h42.7c5.9,0,10.7,4.8,10.7,10.7
		S315.2,320,309.3,320z"/>
</g>
</svg>
