<?xml version="1.0" encoding="utf-8"?>
<!-- Generator: Adobe Illustrator 24.2.3, SVG Export Plug-In . SVG Version: 6.00 Build 0)  -->
<svg version="1.1" id="bold" xmlns="http://www.w3.org/2000/svg" xmlns:xlink="http://www.w3.org/1999/xlink" x="0px" y="0px"
	 viewBox="0 0 512 512" style="enable-background:new 0 0 512 512;" xml:space="preserve">
<style type="text/css">
	.st0{fill:#F0FCFC;}
	.st1{fill:#635BFF;}
	.st2{fill:#00D4FF;}
</style>
<path class="st0" d="M415.5,512h-320c-53,0-96-43-96-96V96c0-53,43-96,96-96h320c53,0,96,43,96,96v320
	C511.5,469,468.5,512,415.5,512z"/>
<path class="st1" d="M351.5,138.7h-192c-17.6,0-32,14.4-32,32v170.7c0,17.6,14.4,32,32,32h192c17.6,0,32-14.4,32-32V170.7
	C383.5,153,369.1,138.7,351.5,138.7z M351.5,352h-192c-5.9,0-10.7-4.8-10.7-10.7V192h213.3v149.3C362.2,347.2,357.4,352,351.5,352z"
	/>
<path class="st2" d="M235.4,308c-3.1,0-6.1-1.6-7.8-4.2l-16.1-24.1H193c-5.2,0-9.4-4.2-9.4-9.4s4.2-9.4,9.4-9.4h23.6
	c3.2,0,6.1,1.6,7.8,4.2l9.8,14.8l21-42c1.5-3.1,4.6-5.1,8.1-5.2c3.7-0.1,6.7,1.6,8.4,4.6l25.5,42.6h18.2c5.2,0,9.4,4.2,9.4,9.4
	s-4.2,9.4-9.4,9.4H292c-3.3,0-6.4-1.7-8.1-4.6l-19.4-32.4l-20.6,41.2c-1.5,3-4.5,5-7.8,5.2C235.8,308,235.6,308,235.4,308L235.4,308
	z"/>
</svg>
