<?xml version="1.0" encoding="utf-8"?>
<!-- Generator: Adobe Illustrator 24.2.3, SVG Export Plug-In . SVG Version: 6.00 Build 0)  -->
<svg version="1.1" id="Layer_1" xmlns="http://www.w3.org/2000/svg" xmlns:xlink="http://www.w3.org/1999/xlink" x="0px" y="0px"
	 viewBox="0 0 2500 566.7" style="enable-background:new 0 0 2500 566.7;" xml:space="preserve">
<style type="text/css">
	.st0{fill:none;}
	.st1{fill:#3B5998;}
</style>
<path class="st0" d="M0-183h2500v939.8H0V-183z"/>
<g>
	<path class="st1" d="M1323.6,281.7c-21,0-36.2,6.9-51.5,13.9v158.9c14.7,1.4,23.1,1.4,37.1,1.4c50.4,0,57.4-23.1,57.4-55.4v-75.9
		C1366.5,300.8,1358.6,281.7,1323.6,281.7L1323.6,281.7z M988.6,273c-35,0-43,19.2-43,43v13.4h85.9V316
		C1031.6,292.2,1023.6,273,988.6,273z M339.7,438.3c0,18.8,8.9,28.6,28.5,28.6c21,0,33.5-6.9,48.8-13.9v-37.7h-46
		C349.3,415.3,339.7,419.4,339.7,438.3L339.7,438.3z M1649.5,281.7c-35.1,0-47.2,19.1-47.2,42.9v86.9c0,23.9,12.1,43.1,47.2,43.1
		c35,0,47.2-19.2,47.2-43.1v-86.9C1696.6,300.8,1684.4,281.7,1649.5,281.7z M167.9,535.8h-103V286.4H13.4v-85.9h51.5v-51.6
		C64.9,78.8,94,37.1,176.6,37.1h68.8v86h-43c-32.2,0-34.3,12-34.3,34.4l-0.1,43h77.9l-9.1,85.9H168L167.9,535.8L167.9,535.8z
		 M520.1,536.4h-85.9l-3.7-21.7c-39.2,21.7-74.2,25.2-97.3,25.2c-63,0-96.5-42.1-96.5-100.3c0-68.6,39.1-93.1,109.1-93.1H417v-14.8
		c0-35-4-45.3-57.9-45.3H271l8.6-85.9h96.3c118.2,0,144.2,37.4,144.2,132L520.1,536.4L520.1,536.4z M812.1,292.7
		c-53.4-9.2-68.8-11.2-94.5-11.2c-46.2,0-60.1,10.2-60.1,49.4v74.2c0,39.2,14,49.5,60.1,49.5c25.7,0,41.1-2,94.5-11.2v83.8
		c-46.8,10.5-77.3,13.3-103.1,13.3c-110.6,0-154.6-58.2-154.6-142.2v-60.2c0-84.1,44-142.4,154.6-142.4c25.8,0,56.3,2.8,103.1,13.3
		V292.7L812.1,292.7z M1134.6,398.2h-189v6.9c0,39.2,14,49.5,60.1,49.5c41.5,0,66.8-2,120.2-11.2v83.8
		c-51.5,10.5-78.3,13.3-128.7,13.3c-110.6,0-154.6-58.2-154.6-142.2v-68.8c0-73.5,32.6-133.8,146-133.8s146,59.5,146,133.8
		L1134.6,398.2L1134.6,398.2z M1469.6,399.8c0,81.2-23.2,140.5-163.9,140.5c-50.8,0-80.6-4.5-136.6-13.1V62.8l103-17.2V208
		c22.3-8.3,51.1-12.5,77.3-12.5c103,0,120.2,46.2,120.2,120.4V399.8L1469.6,399.8z M1799.8,401.5c0,70.1-28.9,138-150,138
		s-150.6-68-150.6-138v-67.6c0-70.1,29.5-138.1,150.6-138.1c121,0,150,68,150,138.1V401.5L1799.8,401.5z M2129.8,401.5
		c0,70.1-29,138-150,138c-121.1,0-150.6-68-150.6-138v-67.6c0-70.1,29.5-138.1,150.6-138.1c121,0,150,68,150,138.1V401.5
		L2129.8,401.5z M2468.4,535.8h-111.7l-94.4-157.6v157.6h-103v-473l103-17.2v304.5l94.4-149.7h111.7l-103.1,163.3L2468.4,535.8z
		 M1979.4,281.7c-35,0-47.1,19.1-47.1,42.9v86.9c0,23.9,12.1,43.1,47.1,43.1c34.9,0,47.3-19.2,47.3-43.1v-86.9
		C2026.7,300.8,2014.4,281.7,1979.4,281.7L1979.4,281.7z"/>
</g>
</svg>
