<?xml version="1.0" encoding="utf-8"?>
<!-- Generator: Adobe Illustrator 24.2.3, SVG Export Plug-In . SVG Version: 6.00 Build 0)  -->
<svg version="1.1" id="Layer_1" xmlns="http://www.w3.org/2000/svg" xmlns:xlink="http://www.w3.org/1999/xlink" x="0px" y="0px"
	 viewBox="0 0 492.1 115.2" style="enable-background:new 0 0 492.1 115.2;" xml:space="preserve">
<style type="text/css">
	.st0{enable-background:new    ;}
	.st1{fill:#00D4FF;}
	.st2{fill:url(#SVGID_1_);}
	.st3{fill:url(#SVGID_2_);}
	.st4{fill:url(#SVGID_3_);}
	.st5{fill:url(#SVGID_4_);}
</style>
<g>
	<g id="Layer_1_1_">
		<g class="st0">
			<path class="st1" d="M192,87.5l-14.9-48.9l-0.1-0.3c0-0.5,0.3-0.7,0.8-0.7h9.1c0.5,0,0.9,0.2,1,0.7l9.6,35.3
				c0,0.1,0.1,0.2,0.2,0.2c0.1,0,0.2-0.1,0.2-0.2l9.5-35.3c0.1-0.5,0.5-0.7,1-0.7h8.9c0.3,0,0.5,0.1,0.7,0.3
				c0.1,0.2,0.2,0.4,0.1,0.7L203,87.5c-0.1,0.5-0.5,0.7-0.9,0.7H193C192.5,88.3,192.1,88,192,87.5z"/>
			<path class="st1" d="M233.1,86.7c-2.8-1.4-5-3.5-6.6-6.1s-2.4-5.7-2.4-9.1v-33c0-0.2,0.1-0.4,0.3-0.6c0.2-0.2,0.4-0.3,0.6-0.3
				h8.5c0.2,0,0.4,0.1,0.6,0.3c0.2,0.2,0.3,0.4,0.3,0.6v33.1c0,2.6,0.8,4.6,2.4,6.2c1.6,1.6,3.6,2.4,6.2,2.4c2.6,0,4.6-0.8,6.2-2.4
				c1.6-1.6,2.4-3.6,2.4-6.2V38.5c0-0.2,0.1-0.4,0.3-0.6c0.2-0.2,0.4-0.3,0.6-0.3h8.5c0.2,0,0.4,0.1,0.6,0.3s0.3,0.4,0.3,0.6v33
				c0,3.4-0.8,6.4-2.4,9.1c-1.6,2.6-3.8,4.7-6.6,6.1s-6.1,2.2-9.8,2.2C239.1,88.8,235.9,88.1,233.1,86.7z"/>
		</g>
		<g class="st0">
			<path class="st1" d="M270.2,88c-0.2-0.2-0.3-0.4-0.3-0.6V38.5c0-0.2,0.1-0.4,0.3-0.6c0.2-0.2,0.4-0.3,0.6-0.3h8.5
				c0.2,0,0.4,0.1,0.6,0.3s0.3,0.4,0.3,0.6v40.6c0,0.2,0.1,0.4,0.4,0.4h23.7c0.2,0,0.4,0.1,0.6,0.3c0.2,0.2,0.3,0.4,0.3,0.6v7
				c0,0.2-0.1,0.4-0.3,0.6c-0.2,0.2-0.4,0.3-0.6,0.3H271C270.6,88.3,270.4,88.2,270.2,88z"/>
		</g>
		<g class="st0">
			<path class="st1" d="M340.9,37.9c0.2,0.2,0.3,0.4,0.3,0.6v7.1c0,0.2-0.1,0.4-0.3,0.6c-0.2,0.2-0.4,0.3-0.6,0.3h-12.9
				c-0.2,0-0.4,0.1-0.4,0.4v40.6c0,0.2-0.1,0.4-0.3,0.6c-0.2,0.2-0.4,0.3-0.6,0.3h-8.5c-0.2,0-0.4-0.1-0.6-0.3
				c-0.2-0.2-0.3-0.4-0.3-0.6V46.8c0-0.2-0.1-0.4-0.4-0.4h-12.6c-0.2,0-0.4-0.1-0.6-0.3s-0.3-0.4-0.3-0.6v-7.1
				c0-0.2,0.1-0.4,0.3-0.6c0.2-0.2,0.4-0.3,0.6-0.3h36.5C340.5,37.6,340.7,37.7,340.9,37.9z"/>
			<path class="st1" d="M374.4,87.6l-9-20c-0.1-0.2-0.2-0.3-0.4-0.3h-6.7c-0.2,0-0.4,0.1-0.4,0.4v19.7c0,0.2-0.1,0.4-0.3,0.6
				s-0.4,0.3-0.6,0.3h-8.5c-0.2,0-0.4-0.1-0.6-0.3c-0.2-0.2-0.3-0.4-0.3-0.6V38.5c0-0.2,0.1-0.4,0.3-0.6c0.2-0.2,0.4-0.3,0.6-0.3
				h20.7c3.1,0,5.8,0.6,8.1,1.9s4.1,3,5.4,5.4c1.3,2.3,1.9,5,1.9,8c0,3.3-0.8,6.1-2.5,8.4c-1.6,2.3-3.9,4-6.9,5
				c-0.2,0.1-0.3,0.3-0.2,0.5l9.8,20.5c0.1,0.2,0.1,0.3,0.1,0.4c0,0.4-0.3,0.6-0.8,0.6h-8.9C374.9,88.3,374.6,88.1,374.4,87.6z
				 M357.9,46.8v12.4c0,0.2,0.1,0.4,0.4,0.4h9.5c2,0,3.7-0.6,5-1.8s1.9-2.8,1.9-4.7s-0.6-3.5-1.9-4.7s-2.9-1.8-5-1.8h-9.5
				C358,46.4,357.9,46.5,357.9,46.8z"/>
			<path class="st1" d="M392.3,88c-0.2-0.2-0.3-0.4-0.3-0.6V38.5c0-0.2,0.1-0.4,0.3-0.6c0.2-0.2,0.4-0.3,0.6-0.3h8.5
				c0.2,0,0.4,0.1,0.6,0.3s0.3,0.4,0.3,0.6v48.9c0,0.2-0.1,0.4-0.3,0.6c-0.2,0.2-0.4,0.3-0.6,0.3h-8.5
				C392.7,88.3,392.5,88.2,392.3,88z"/>
			<path class="st1" d="M440.4,39.5c2.4,1.3,4.3,3.1,5.6,5.5c1.3,2.4,2,5.1,2,8.2c0,3-0.7,5.7-2.1,8s-3.3,4.1-5.8,5.4
				c-2.5,1.3-5.3,1.9-8.6,1.9h-10.3c-0.2,0-0.4,0.1-0.4,0.4v18.4c0,0.2-0.1,0.4-0.3,0.6c-0.2,0.2-0.4,0.3-0.6,0.3h-8.5
				c-0.2,0-0.4-0.1-0.6-0.3c-0.2-0.2-0.3-0.4-0.3-0.6v-49c0-0.2,0.1-0.4,0.3-0.6c0.2-0.2,0.4-0.3,0.6-0.3H432
				C435.2,37.6,438,38.2,440.4,39.5z M435.8,58.5c1.3-1.3,2-3,2-5c0-2.1-0.7-3.8-2-5.1c-1.4-1.3-3.1-2-5.4-2h-9.2
				c-0.2,0-0.4,0.1-0.4,0.4v13.3c0,0.2,0.1,0.4,0.4,0.4h9.2C432.7,60.4,434.5,59.8,435.8,58.5z"/>
			<path class="st1" d="M489.2,46.1c-0.2,0.2-0.4,0.3-0.6,0.3h-23.7c-0.2,0-0.4,0.1-0.4,0.4V58c0,0.2,0.1,0.4,0.4,0.4h15.6
				c0.2,0,0.4,0.1,0.6,0.3s0.3,0.4,0.3,0.6v7c0,0.2-0.1,0.4-0.3,0.6c-0.2,0.2-0.4,0.3-0.6,0.3h-15.6c-0.2,0-0.4,0.1-0.4,0.4v11.7
				c0,0.2,0.1,0.4,0.4,0.4h23.7c0.2,0,0.4,0.1,0.6,0.3c0.2,0.2,0.3,0.4,0.3,0.6v7c0,0.2-0.1,0.4-0.3,0.6c-0.2,0.2-0.4,0.3-0.6,0.3
				h-33.4c-0.2,0-0.4-0.1-0.6-0.3c-0.2-0.2-0.3-0.4-0.3-0.6V38.5c0-0.2,0.1-0.4,0.3-0.6c0.2-0.2,0.4-0.3,0.6-0.3h33.4
				c0.2,0,0.4,0.1,0.6,0.3s0.3,0.4,0.3,0.6v7C489.4,45.8,489.3,46,489.2,46.1z"/>
		</g>
	</g>
</g>
<linearGradient id="SVGID_1_" gradientUnits="userSpaceOnUse" x1="85.9464" y1="-446.4368" x2="4.5351" y2="-527.8481" gradientTransform="matrix(1 0 0 -1 -6.92 -474)">
	<stop  offset="0" style="stop-color:#635BFF"/>
	<stop  offset="0.59" style="stop-color:#00D4FF"/>
	<stop  offset="1" style="stop-color:#00D4FF"/>
</linearGradient>
<path class="st2" d="M90.5,11L39.7,56.8L1,0.4h85.4c3.4,0,6,2.7,6.1,6C92.5,8.2,91.7,9.8,90.5,11z"/>
<linearGradient id="SVGID_2_" gradientUnits="userSpaceOnUse" x1="78.4513" y1="-507.947" x2="55.4828" y2="-496.0163" gradientTransform="matrix(1 0 0 -1 -6.92 -474)">
	<stop  offset="0" style="stop-color:#635BFF"/>
	<stop  offset="1" style="stop-color:#635BFF"/>
</linearGradient>
<path class="st3" d="M75.3,11c2.5-2.3,2.7-6,0.5-8.5c-1.2-1.3-2.8-2-4.6-2H1l32.8,47.9L75.3,11z"/>
<linearGradient id="SVGID_3_" gradientUnits="userSpaceOnUse" x1="137.0634" y1="-497.5638" x2="55.6521" y2="-578.975" gradientTransform="matrix(1 0 0 -1 -6.92 -474)">
	<stop  offset="0" style="stop-color:#635BFF"/>
	<stop  offset="0.59" style="stop-color:#00D4FF"/>
	<stop  offset="1" style="stop-color:#00D4FF"/>
</linearGradient>
<path class="st4" d="M157.8,0.4L79.4,114.7L64.8,93.6C57.5,82.9,58,69,66.1,58.9l46.8-58.5H157.8z"/>
<linearGradient id="SVGID_4_" gradientUnits="userSpaceOnUse" x1="73.9063" y1="-573.973" x2="101.05" y2="-502.6774" gradientTransform="matrix(1 0 0 -1 -6.92 -474)">
	<stop  offset="0" style="stop-color:#635BFF"/>
	<stop  offset="1" style="stop-color:#635BFF"/>
</linearGradient>
<path class="st5" d="M112.9,0.4L66.1,58.8c-8,10-8.5,24.1-1.3,34.6l14.7,21.3C63.9,72.9,112.9,0.4,112.9,0.4z"/>
</svg>
