<?xml version="1.0" encoding="utf-8"?>
<!-- Generator: Adobe Illustrator 24.2.3, SVG Export Plug-In . SVG Version: 6.00 Build 0)  -->
<svg version="1.1" id="Layer_1" xmlns="http://www.w3.org/2000/svg" xmlns:xlink="http://www.w3.org/1999/xlink" x="0px" y="0px"
	 viewBox="0 0 2500 716.4" style="enable-background:new 0 0 2500 716.4;" xml:space="preserve">
<style type="text/css">
	.st0{fill:#2E3133;}
	.st1{fill:#FFCB29;}
</style>
<g>
	<path class="st0" d="M1506.6,633.3v-54h26.8v54H1506.6z M1780.5,447.6c-0.8-11.5-4.1-22.2-9.1-31.3s-11.5-16.5-19.8-22.6
		c-8.5-6.4-18.1-11-28.4-13.6c-11.1-3-22.6-4.5-34.2-4.5c-15.4-0.1-30.6,3.3-44.5,9.9c-12.8,6.3-23.8,15.6-32.1,27.2
		c-8.7,11.1-15.2,24.3-19.8,38.7c-4.5,14.4-6.6,29.2-6.6,44.9c0,18.1,2.1,34.6,6.2,49.8c4.1,15.3,10.7,28.8,19.3,40
		c8.6,11.1,19.6,20.1,32.1,26.4c13.2,6.2,28.4,9.5,45.3,9.5c12.8,0,24.3-2.1,34.6-6.2c10.7-4.1,20.2-9.9,28.4-17.3
		c8.2-7.4,15.3-16.1,20.2-26.4c4.9-10.3,8.7-21.8,10.7-33.8h19.8c-1.8,14.9-6.3,29.5-13.2,42.8c-6.3,12.1-14.8,22.8-25.1,31.7
		c-9.9,8.7-21.4,15.4-33.8,19.8c-12.8,4.5-26.4,6.6-40.8,6.6c-22.2,0-40.8-4.1-56.4-11.5c-15.6-8.3-28.4-18.1-38.3-31.7
		c-9.9-13.2-17.3-28.4-22.2-45.7c-4.6-17.6-7-35.7-7-54c0-18.5,2.5-36.7,8.3-53.5c5.3-16.5,13.2-31.3,23.9-43.6
		c10.7-12.4,23.1-22.7,38.7-29.7c15.3-7.4,33-11.1,53.1-11.1c14.4,0,28.4,2.1,40.8,5.4c12.8,3.7,24.3,9.1,33.8,16.5
		c10,7.4,18.2,16.8,24.3,27.6c6.2,11.1,9.9,24.3,11.5,40h-19.3L1780.5,447.6z M1831.9,499.1c0-19.3,2.5-37.5,8.2-54
		c5.4-16.5,13.2-31.7,23.9-44.9c10.5-13,23.7-23.6,38.7-30.9c15.3-7.4,33-11.1,53.1-11.1c19.8,0,37.5,3.7,53.1,11.1
		c15.1,7.2,28.4,17.8,38.7,30.9c10.7,13.2,18.1,27.6,23.9,44.9c5.4,17.3,8.2,34.6,8.2,54c0,19.4-2.5,37.5-8.2,54.4
		c-4.9,16.4-13.1,31.6-23.9,44.9c-10.5,12.8-23.8,23-38.7,30.1c-15.2,7.4-32.9,11.1-53.1,11.1c-19.8,0-37.5-3.7-53.1-11.1
		c-14.9-7.2-28.1-17.4-38.7-30.1c-10.3-12.4-18.5-27.6-23.9-44.9C1834.4,536.5,1831.9,518,1831.9,499.1L1831.9,499.1z M1851.3,499.1
		c0,16.1,2.1,31.3,6.6,46.5c4.3,14.1,11,27.3,19.8,39.1c8.6,11.3,19.6,20.6,32.1,27.2c13.2,6.6,27.6,9.9,44.5,9.9
		c15.4,0.1,30.6-3.2,44.5-9.9c12.7-6.4,23.7-15.7,32.1-27.2c8.8-11.8,15.4-25.1,19.8-39.1c4.5-14.4,6.6-30.1,6.6-46.5
		c0-16.5-2.5-31.3-6.6-46.5c-4.5-14.4-11.1-27.6-19.8-39.1c-8.6-11.5-19.8-20.6-32.1-27.2c-13.2-6.6-27.6-9.9-44.5-9.9
		c-15.4-0.1-30.6,3.2-44.5,9.9c-12.7,6.4-23.7,15.7-32.1,27.2c-8.8,11.8-15.4,25.1-19.8,39.1C1853.8,467.8,1851.3,483,1851.3,499.1
		L1851.3,499.1z M2120.7,364.8h19.8v54.8h0.8c2-8.7,5.8-16.8,11.1-23.9c4.9-7.4,11.5-14,19.4-19.8c7.7-5.6,16.1-10,25.1-13.2
		c9.5-3,19.3-4.5,29.2-4.5c13.2,0,24.3,1.6,33.4,4.9c9.5,3.7,17.7,7.4,24.3,13.2c6.6,5.8,11.9,11.5,15.7,18.1
		c4.1,6.6,6.6,13.6,8.2,20.6h0.8c8.2-18.5,18.5-33,32.1-42.4c13.6-9.5,31.3-14.4,53.1-14.4c11.9,0,23.9,2.1,33.8,5.4
		c9.9,3.7,19.3,9.1,26.8,16.5c7.4,7.4,13.2,17.3,17.7,28.4c4.1,11.5,6.2,25.1,6.2,40.8v182.9H2458V448c0-17.3-2.5-30.1-8.2-40.4
		c-4.9-9.5-11.5-17.3-18.5-22.2c-7-5-14-8.3-21.8-9.5c-7-0.8-12.8-2.1-16.5-2.1c-12,0-23.9,2.1-33.8,6.2
		c-10.1,4.3-19.2,10.6-26.8,18.5c-7.4,8.7-13.2,18.5-17.7,31.3c-4.1,12.8-6.2,26.8-6.2,42.4v159.8h-19.8V448
		c0-16.5-2.5-30.1-7.4-39.9c-4.9-9.9-11.1-17.3-17.7-22.2c-6.6-4.9-13.6-8.3-21-9.5c-5.7-1.4-11.5-2-17.3-2.1
		c-9.5,0-19.4,2.1-29.3,5.4c-9.9,4.1-19.3,9.5-27.6,17.7c-8.2,8.2-15.3,18.1-20.2,30.9c-4.9,12.8-8.2,27.2-8.2,44.5v159.4h-19.8V364
		h0.4L2120.7,364.8z"/>
	<path class="st1" d="M844.3,88c-28.8,15.2-39.1,40.4-39.1,110c0,0,14.4-14,35.8-21.8c15.6-5.4,28.8-14,36.6-19.8
		c24.3-17.7,27.6-40.4,27.6-78.7C905.3,77.7,865.7,76.5,844.3,88L844.3,88z"/>
	<path class="st0" d="M675.5,104.5c-23.1,20.6-30.1,53.1-30.1,53.1L568,455l-63.8-243.8c-6.2-25.5-17.7-58.1-35.4-79.5
		c-22.2-27.2-67.9-28.8-72.9-28.8c-5,0-51.1,1.7-73.7,29.2c-17.7,21.8-29.2,54-35.4,79.5l-63.8,243.8l-76.6-297.8
		c0,0-6.6-33-30-53.1C78.3,71.1,21.8,78.1,21.8,78.1l147,557.6c0,0,48.6,3.7,72.9-9.1c31.7-16.1,47.4-28.8,66.7-105
		c17.3-67.5,65.5-266.1,70-280.5c2.1-7,4.9-23.9,17.3-23.9c12.8,0,15.3,16.5,17.3,23.9c4.5,14,52.3,212.9,70,280.5
		c19.4,75.8,34.6,88.1,66.7,105c24.3,12.8,72.9,9.1,72.9,9.1l147-557.2C769.8,78.6,713.4,71.5,675.5,104.5z M905.3,169.2
		c0,0-9.1,14-30.1,26.4c-13.6,7.4-26.4,12.8-40.4,19.4c-23.1,11.1-29.7,23.9-29.7,42.8v378.1c0,0,37.5,4.5,61.4-7.4
		c31.3-16.1,38.3-31.3,38.7-100.9L905.3,169.2z M1272.6,358.2l186.6-278.4c0,0-78.7-13.6-117.8,22.3c-25.1,22.6-53.1,63.4-53.1,63.4
		l-68.4,99.7c-3.7,4.9-7.4,10.7-14.4,10.7s-11.5-5.4-14.4-10.7l-69.2-99.3c0,0-27.6-40.8-53.1-63.4C1030.1,66.6,951,80.2,951,80.2
		l187,277.6L951,635c0,0,82.4,10.7,121.1-25.1c25.1-22.6,49.4-60.1,49.4-60.1l68.4-99.3c3.7-5,7.4-10.7,14.4-10.7
		c7,0,11.5,5.4,14.4,10.7l68.4,99.3c0,0,25.5,36.7,50.2,60.1c38.7,35.8,119.9,25.1,119.9,25.1L1272.6,358.2z"/>
</g>
</svg>
