<?xml version="1.0" encoding="utf-8"?>
<!-- Generator: Adobe Illustrator 24.2.3, SVG Export Plug-In . SVG Version: 6.00 Build 0)  -->
<svg version="1.1" id="Layer_1" xmlns="http://www.w3.org/2000/svg" xmlns:xlink="http://www.w3.org/1999/xlink" x="0px" y="0px"
	 viewBox="0 0 2500 686.9" style="enable-background:new 0 0 2500 686.9;" xml:space="preserve">
<style type="text/css">
	.st0{fill:#253B80;}
	.st1{fill:#179BD7;}
	.st2{fill:#222D65;}
</style>
<path class="st0" d="M935.5,174.5H797.3c-9.4,0-17.5,6.9-19,16.2L722.5,545c-1,6.3,3.3,12.2,9.6,13.2c0.6,0.1,1.2,0.1,1.8,0.1h66
	c9.5,0,17.5-6.9,19-16.2l15.1-95.6c1.5-9.3,9.5-16.2,18.9-16.2h43.7c91,0,143.5-44,157.3-131.3c6.2-38.2,0.3-68.2-17.6-89.2
	C1016.6,186.7,981.7,174.5,935.5,174.5L935.5,174.5z M951.4,303.9c-7.6,49.6-45.4,49.6-82.1,49.6h-20.8l14.6-92.6
	c0.9-5.6,5.7-9.7,11.4-9.7h9.6c24.9,0,48.5,0,60.6,14.2C952,273.8,954.2,286.5,951.4,303.9L951.4,303.9z M1348.5,302.3h-66.2
	c-5.7,0-10.5,4.1-11.4,9.7l-2.9,18.5l-4.6-6.7c-14.3-20.8-46.3-27.7-78.1-27.7c-73.1,0-135.6,55.4-147.7,133.1
	c-6.3,38.7,2.7,75.8,24.6,101.6c20.2,23.8,49,33.7,83.3,33.7c58.9,0,91.6-37.9,91.6-37.9l-2.9,18.4c-1,6.3,3.3,12.2,9.6,13.2
	c0.6,0.1,1.2,0.1,1.8,0.1h59.6c9.5,0,17.5-6.9,19-16.2l35.8-226.4c1-6.3-3.3-12.1-9.5-13.1C1349.7,302.3,1349.1,302.3,1348.5,302.3
	L1348.5,302.3z M1256.3,431c-6.4,37.8-36.4,63.2-74.6,63.2c-19.2,0-34.6-6.2-44.4-17.8c-9.8-11.6-13.5-28.1-10.4-46.5
	c6-37.5,36.5-63.7,74.1-63.7c18.8,0,34.1,6.2,44.1,18C1255.2,396.1,1259.2,412.7,1256.3,431L1256.3,431z M1700.8,302.3h-66.5
	c-6.4,0-12.3,3.2-15.9,8.4l-91.7,135.1L1487.9,316c-2.4-8.1-9.9-13.7-18.4-13.7h-65.3c-6.4,0-11.5,5.1-11.5,11.5
	c0,1.3,0.2,2.5,0.6,3.7l73.2,214.9l-68.8,97.2c-3.7,5.2-2.5,12.4,2.7,16.1c1.9,1.4,4.3,2.1,6.7,2.1h66.4c6.3,0,12.2-3.1,15.8-8.2
	l221.1-319.2c3.6-5.2,2.3-12.4-2.9-16C1705.5,303,1703.2,302.3,1700.8,302.3L1700.8,302.3z"/>
<path class="st1" d="M1921,174.5h-138.2c-9.4,0-17.5,6.9-18.9,16.2L1708,545c-1,6.3,3.3,12.2,9.6,13.2c0.6,0.1,1.2,0.1,1.8,0.1h70.9
	c6.6,0,12.2-4.8,13.3-11.4l15.9-100.4c1.5-9.3,9.5-16.2,18.9-16.2h43.7c91,0,143.5-44,157.3-131.3c6.2-38.2,0.2-68.2-17.6-89.2
	C2002,186.7,1967.2,174.5,1921,174.5L1921,174.5z M1936.9,303.9c-7.5,49.6-45.4,49.6-82.1,49.6H1834l14.6-92.6
	c0.9-5.6,5.7-9.7,11.4-9.7h9.6c24.9,0,48.5,0,60.6,14.2C1937.5,273.8,1939.7,286.5,1936.9,303.9L1936.9,303.9z M2333.9,302.3h-66.1
	c-5.7,0-10.5,4.1-11.4,9.7l-2.9,18.5l-4.6-6.7c-14.3-20.8-46.2-27.7-78.1-27.7c-73.1,0-135.5,55.4-147.7,133.1
	c-6.3,38.7,2.6,75.8,24.6,101.6c20.2,23.8,49,33.7,83.3,33.7c58.9,0,91.6-37.9,91.6-37.9l-2.9,18.4c-1,6.3,3.3,12.2,9.6,13.2
	c0.6,0.1,1.2,0.1,1.8,0.1h59.6c9.4,0,17.5-6.9,18.9-16.2l35.8-226.4c1-6.3-3.3-12.2-9.6-13.2
	C2335.1,302.3,2334.5,302.3,2333.9,302.3L2333.9,302.3z M2241.7,431c-6.3,37.8-36.4,63.2-74.6,63.2c-19.2,0-34.6-6.2-44.4-17.8
	c-9.8-11.6-13.5-28.1-10.4-46.5c6-37.5,36.5-63.7,74.1-63.7c18.8,0,34.1,6.2,44.1,18C2240.6,396.1,2244.6,412.7,2241.7,431z
	 M2411.9,184.2L2355.2,545c-1,6.3,3.3,12.2,9.6,13.2c0.6,0.1,1.2,0.1,1.8,0.1h57c9.5,0,17.5-6.9,19-16.2l55.9-354.3
	c1-6.3-3.3-12.2-9.6-13.2c-0.6-0.1-1.2-0.1-1.8-0.1h-63.8C2417.6,174.5,2412.8,178.6,2411.9,184.2z"/>
<path class="st0" d="M148.7,627.1l10.6-67.1l-23.5-0.5H23.4l78.1-495.2c0.5-3.1,3.2-5.4,6.3-5.4h189.5c62.9,0,106.3,13.1,129,38.9
	c10.6,12.1,17.4,24.8,20.7,38.7c3.4,14.6,3.5,32.1,0.1,53.4l-0.2,1.6v13.7l10.6,6c8.1,4.1,15.4,9.7,21.5,16.4
	c9.1,10.4,15,23.5,17.5,39.2c2.6,16.1,1.7,35.2-2.5,56.8c-4.8,24.9-12.7,46.6-23.3,64.3c-9.3,15.9-21.9,29.7-36.9,40.4
	c-14.1,10-30.8,17.6-49.7,22.4c-18.3,4.8-39.2,7.2-62.1,7.2h-14.7c-10.5,0-20.8,3.8-28.8,10.6c-8,6.9-13.4,16.4-15,26.8l-1.1,6
	l-18.7,118.3l-0.8,4.3c-0.2,1.4-0.6,2.1-1.2,2.5c-0.5,0.4-1.2,0.7-1.9,0.7L148.7,627.1z"/>
<path class="st1" d="M467.6,193c-0.6,3.6-1.2,7.3-1.9,11.1c-25,128.3-110.5,172.6-219.7,172.6h-55.6c-13.4,0-24.6,9.7-26.7,22.9
	l-28.5,180.5l-8.1,51.2c-1.2,7.8,4.1,15,11.8,16.3c0.7,0.1,1.5,0.2,2.2,0.2h98.6c11.7,0,21.6-8.5,23.4-20l1-5l18.6-117.8l1.2-6.5
	c1.8-11.6,11.8-20,23.4-20h14.7c95.5,0,170.3-38.8,192.2-151c9.1-46.9,4.4-86-19.8-113.6C486.9,205.3,477.7,198.3,467.6,193
	L467.6,193z"/>
<path class="st2" d="M441.4,182.6c-8-2.3-16.1-4.1-24.3-5.4c-16.2-2.5-32.6-3.7-49-3.6H219.6c-11.7,0-21.6,8.5-23.4,20l-31.6,200.1
	l-0.9,5.8c2-13.2,13.4-22.9,26.7-22.9h55.6c109.2,0,194.7-44.3,219.7-172.6c0.7-3.8,1.4-7.5,1.9-11.1c-6.6-3.5-13.5-6.4-20.5-8.7
	C445.2,183.7,443.3,183.1,441.4,182.6L441.4,182.6z"/>
<path class="st0" d="M196.2,193.7c1.8-11.5,11.7-20.1,23.4-20h148.5c17.6,0,34,1.2,49,3.6c10.1,1.6,20.1,4,29.9,7.1
	c7.4,2.4,14.2,5.3,20.5,8.7c7.4-47.4-0.1-79.7-25.7-108.9c-28.3-32.2-79.3-46-144.5-46H107.8c-13.3,0-24.7,9.7-26.8,22.9L2.1,561.3
	c-1.4,8.9,4.7,17.2,13.5,18.6c0.8,0.1,1.7,0.2,2.5,0.2h117l29.4-186.4L196.2,193.7z"/>
</svg>
