<?xml version="1.0" encoding="utf-8"?>
<!-- Generator: Adobe Illustrator 24.2.3, SVG Export Plug-In . SVG Version: 6.00 Build 0)  -->
<svg version="1.1" id="Layer_1" xmlns="http://www.w3.org/2000/svg" xmlns:xlink="http://www.w3.org/1999/xlink" x="0px" y="0px"
	 viewBox="0 0 2500 764.3" style="enable-background:new 0 0 2500 764.3;" xml:space="preserve">
<style type="text/css">
	.st0{fill-rule:evenodd;clip-rule:evenodd;fill:#2D8CFF;}
</style>
<path class="st0" d="M1999.1,274.9c9.1,15.7,12.1,33.6,13.1,53.7l1.3,26.8v187.5l1.3,26.8c2.6,43.8,35,76.2,79.1,79l26.7,1.3V355.5
	l1.3-26.8c1.1-19.9,4.1-38.1,13.3-54c29.7-51.1,95.2-68.5,146.3-38.8c16.2,9.4,29.7,22.9,39,39.2c9.1,15.7,12,34,13.1,53.6l1.3,26.7
	v187.5l1.3,26.8c2.8,44.1,34.8,76.5,79.1,79l26.7,1.3V328.7c0-118.3-95.9-214.3-214.3-214.3c-61.5-0.1-120.1,26.4-160.8,72.6
	c-40.7-46.2-99.2-72.7-160.8-72.6c-44.5,0-85.8,13.5-120,36.8c-20.9-23.3-67.6-36.8-94.4-36.8v535.8l26.8-1.3
	c44.8-3,77.2-34.5,79-79l1.4-26.8V355.5l1.3-26.8c1.1-20.2,3.9-38,13.1-53.8c19.2-33,54.5-53.4,92.7-53.4
	C1944.6,221.4,1980,241.8,1999.1,274.9L1999.1,274.9z M165,648.8l26.8,1.3h401.8l-1.3-26.7c-3.6-44.1-34.8-76.2-79-79.1l-26.8-1.3
	H245.4l321.4-321.5l-1.3-26.7c-2.1-44.5-34.6-76.7-79-79.1l-26.8-1.2l-401.8-0.1l1.3,26.8c3.5,43.6,35.2,76.5,79,79l26.8,1.3H406
	L84.6,543l1.3,26.8C88.6,613.9,120.5,645.9,165,648.8L165,648.8z M1586.8,192.7c104.6,104.6,104.6,274.2,0,378.8c0,0,0,0,0,0
	c-104.7,104.6-274.3,104.6-379,0c-104.6-104.6-104.6-274.3,0-378.9c50.2-50.2,118.3-78.4,189.3-78.5
	C1468.3,114.2,1536.5,142.4,1586.8,192.7L1586.8,192.7z M1511,268.6c62.7,62.8,62.7,164.6,0,227.3c-62.8,62.7-164.6,62.7-227.3,0
	c-62.7-62.8-62.7-164.6,0-227.3C1346.5,205.8,1448.2,205.8,1511,268.6L1511,268.6z M834.9,114.3c71,0,139.1,28.2,189.3,78.5
	c104.6,104.6,104.6,274.3,0,378.9c-104.7,104.6-274.3,104.6-379,0c-104.6-104.6-104.6-274.3,0-378.9
	c50.2-50.2,118.3-78.4,189.3-78.5L834.9,114.3L834.9,114.3z M948.4,268.5c62.8,62.8,62.8,164.6,0,227.4
	c-62.8,62.7-164.6,62.7-227.3,0c-62.7-62.8-62.7-164.6,0-227.3C783.9,205.8,885.6,205.8,948.4,268.5L948.4,268.5z"/>
</svg>
