<?xml version="1.0" encoding="utf-8"?>
<!-- Generator: Adobe Illustrator 24.2.3, SVG Export Plug-In . SVG Version: 6.00 Build 0)  -->
<svg version="1.1" id="Layer_1" xmlns="http://www.w3.org/2000/svg" xmlns:xlink="http://www.w3.org/1999/xlink" x="0px" y="0px"
	 viewBox="0 0 2500 841.7" style="enable-background:new 0 0 2500 841.7;" xml:space="preserve">
<style type="text/css">
	.st0{fill:#003912;}
	.st1{fill:#1DBF73;}
</style>
<path class="st0" d="M2292.2,405.3h-88.5c-56.9,0-87.4,42.6-87.4,113.7v256.9h-167.8V405.2h-71.2c-56.9,0-87.4,42.6-87.4,113.7
	v256.9h-167.8V268.2h167.8v77.2c27.5-59.9,65.1-77.2,121-77.2h205.4v77.2c27.5-59.9,65.1-77.2,121-77.2h54.9L2292.2,405.3
	L2292.2,405.3z M1585.5,561.6h-349.8c9.1,56.9,44.7,89.4,104.7,89.4c44.7,0,76.3-18.3,86.4-50.8l148.4,41.6
	c-36.6,88.3-127.1,142.1-234.9,142.1c-182,0-265.4-141.1-265.4-261.9c0-118.8,73.2-260.9,255.2-260.9
	c193.2,0,257.2,144.2,257.2,250.8C1587.7,528.5,1587,545.1,1585.5,561.6L1585.5,561.6z M1422.8,463.1c-4.1-43.7-35.6-84.3-92.5-84.3
	c-52.9,0-84.4,23.3-94.6,84.3H1422.8z M782.3,775.8h147.4l184-507.6H945l-89.5,295.4L764,268.2H596.2L782.3,775.8z M94.9,775.8
	h166.8V405.3h158.7v370.6h165.7V268.2H261.7v-31.5c0-34.5,24.4-55.8,63-55.8h95.6V43.9h-123c-121,0-202.4,74.1-202.4,182.7v41.6H0.4
	v137.1h94.6V775.8z"/>
<path class="st1" d="M2395.9,791.1c57.3,0,103.7-46.4,103.7-103.6c0-57.2-46.4-103.6-103.7-103.6c-57.3,0-103.7,46.4-103.7,103.6
	C2292.2,744.7,2338.7,791.1,2395.9,791.1z"/>
</svg>
