<svg id="Layer_1" data-name="Layer 1" xmlns="http://www.w3.org/2000/svg" viewBox="0 0 279.17 209.58"><defs><style>.cls-1{fill:#424c66;}.cls-2{fill:#606c96;}.cls-3{fill:#00d4ff;}.cls-4{fill:#7689b2;}</style></defs><path class="cls-1" d="M396,263h0V246.3H380.12L264,167.21a16.09,16.09,0,0,0-15.16-.22L132.49,246.3H116.88V263h0a11.15,11.15,0,0,0,4.9,9.19l127.09,86.6A16.1,16.1,0,0,0,264,359l127.09-86.6A11.19,11.19,0,0,0,396,263Z" transform="translate(-116.88 -151.39)"/><path class="cls-2" d="M391.13,240.17,264,153.57a16.09,16.09,0,0,0-15.16-.22L121.79,240a11.25,11.25,0,0,0,0,18.59l127.09,86.6a16.09,16.09,0,0,0,15.16.22l127.09-86.6A11.25,11.25,0,0,0,391.13,240.17Z" transform="translate(-116.88 -151.39)"/><path class="cls-1" d="M302,216h0V210.7h-5l-36.62-24.95a3.39,3.39,0,0,0-2.1-.62,3.46,3.46,0,0,0-2.68.55l-36.72,25H213.9V216h0a3.5,3.5,0,0,0,1.55,2.9l40.09,27.32a3.57,3.57,0,0,0,2.11.62,3.44,3.44,0,0,0,2.67-.55l40.1-27.32A3.52,3.52,0,0,0,302,216Z" transform="translate(-116.88 -151.39)"/><path class="cls-3" d="M300.42,203.45l-40.1-27.32a3.39,3.39,0,0,0-2.1-.62,3.46,3.46,0,0,0-2.68.55l-40.09,27.32a3.54,3.54,0,0,0,0,5.86l40.09,27.32a5.08,5.08,0,0,0,4.78.07l40.1-27.32A3.55,3.55,0,0,0,300.42,203.45Z" transform="translate(-116.88 -151.39)"/><path class="cls-1" d="M351.87,250.49h0v-5.27h-5l-36.62-24.95a5.08,5.08,0,0,0-4.78-.07l-36.72,25h-4.92v5.27h0a3.54,3.54,0,0,0,1.55,2.9l40.09,27.32a3.57,3.57,0,0,0,2.11.62,3.49,3.49,0,0,0,2.67-.56l40.1-27.32A3.52,3.52,0,0,0,351.87,250.49Z" transform="translate(-116.88 -151.39)"/><path class="cls-3" d="M350.33,239l-40.1-27.32a5.08,5.08,0,0,0-4.78-.07L265.36,238.9a3.55,3.55,0,0,0,0,5.87l40.09,27.32a3.57,3.57,0,0,0,2.11.62,3.52,3.52,0,0,0,2.67-.55l40.1-27.32A3.56,3.56,0,0,0,350.33,239Z" transform="translate(-116.88 -151.39)"/><path class="cls-1" d="M252.05,251.11h0v-5.27h-5l-36.62-25a3.39,3.39,0,0,0-2.1-.62,3.46,3.46,0,0,0-2.68.55l-36.72,25H164v5.27h0a3.48,3.48,0,0,0,1.55,2.89l40.09,27.32a5.08,5.08,0,0,0,4.78.07l40.1-27.32A3.52,3.52,0,0,0,252.05,251.11Z" transform="translate(-116.88 -151.39)"/><path class="cls-4" d="M250.5,239.59l-40.09-27.32a3.54,3.54,0,0,0-2.1-.62,3.5,3.5,0,0,0-2.68.55l-40.09,27.32a3.55,3.55,0,0,0,0,5.87l40.09,27.32a5,5,0,0,0,4.78.06l40.09-27.32A3.54,3.54,0,0,0,250.5,239.59Z" transform="translate(-116.88 -151.39)"/><path class="cls-1" d="M302,285.63h0v-5.27h-5l-36.62-25a5.08,5.08,0,0,0-4.78-.07l-36.72,25H213.9v5.27h0a3.51,3.51,0,0,0,1.55,2.9l40.09,27.32a3.57,3.57,0,0,0,2.11.62,3.52,3.52,0,0,0,2.67-.55l40.1-27.32A3.52,3.52,0,0,0,302,285.63Z" transform="translate(-116.88 -151.39)"/><path class="cls-3" d="M300.42,274.11l-40.1-27.32a5,5,0,0,0-4.78-.06l-40.09,27.32a3.54,3.54,0,0,0,0,5.86l40.09,27.32a3.56,3.56,0,0,0,2.1.62,3.45,3.45,0,0,0,2.68-.55L300.42,280A3.56,3.56,0,0,0,300.42,274.11Z" transform="translate(-116.88 -151.39)"/></svg>