<?xml version="1.0" encoding="utf-8"?>
<!-- Generator: Adobe Illustrator 24.2.3, SVG Export Plug-In . SVG Version: 6.00 Build 0)  -->
<svg version="1.1" id="Layer_1" xmlns="http://www.w3.org/2000/svg" xmlns:xlink="http://www.w3.org/1999/xlink" x="0px" y="0px"
	 viewBox="0 0 279.2 209.6" style="enable-background:new 0 0 279.2 209.6;" xml:space="preserve">
<style type="text/css">
	.st0{fill:#424C66;}
	.st1{fill:#606C96;}
	.st2{fill:#1B2941;}
	.st3{fill:none;stroke:#7989AF;stroke-miterlimit:10;}
	.st4{fill:#00D4FF;}
	.st5{fill:#FFFFFF;}
</style>
<path class="st0" d="M279.2,111.6L279.2,111.6V94.9h-15.9L147.2,15.8c-4.7-2.6-10.4-2.7-15.2-0.2L15.6,94.9H0v16.7l0,0
	c0,3.7,1.9,7.1,4.9,9.2L132,207.4c4.7,2.6,10.4,2.7,15.2,0.2L274.3,121C277.4,118.9,279.2,115.4,279.2,111.6z"/>
<path class="st1" d="M274.3,88.8L147.2,2.2C142.5-0.4,136.8-0.5,132,2L4.9,88.6c-5.1,3.5-6.5,10.5-3,15.6c0.8,1.2,1.8,2.2,3,3
	L132,193.8c4.7,2.6,10.4,2.7,15.2,0.2l127.1-86.6c5.1-3.5,6.5-10.5,3-15.6C276.5,90.6,275.4,89.6,274.3,88.8z"/>
<path class="st2" d="M212.7,91L144,44.1c-1-0.8-2.4-1-3.7-1c-1.6-0.4-3.3,0-4.6,0.9L67.1,90.8c-2.8,1.8-3.5,5.6-1.6,8.4
	c0.4,0.7,0.9,1.2,1.6,1.6l68.7,46.8c1,0.8,2.4,1.2,3.7,1c1.6,0.3,3.3,0,4.6-0.9l68.7-46.8c2.8-1.8,3.5-5.6,1.6-8.4
	C213.9,91.9,213.4,91.4,212.7,91z"/>
<line class="st3" x1="29.7" y1="93.7" x2="136.9" y2="167.3"/>
<line class="st3" x1="139.9" y1="168.3" x2="245.9" y2="95.3"/>
<line class="st3" x1="32.9" y1="98.3" x2="142.4" y2="22.7"/>
<line class="st3" x1="133.4" y1="20.2" x2="247.9" y2="99.3"/>
<path class="st0" d="M198,92.4L198,92.4v-7h-6.6l-48-32.7c-0.8-0.5-1.8-0.8-2.8-0.8c-1.2-0.3-2.5,0-3.5,0.8L89,85.6h-6.4v6.7l0,0
	c0,1.6,0.8,2.9,2,3.8l52.6,35.8c2,1,4.3,1,6.3,0.1L196,96.2C197.2,95.3,198,93.9,198,92.4z"/>
<path class="st4" d="M196,78.5l-52.6-35.8c-0.8-0.5-1.8-0.8-2.8-0.8c-1.2-0.3-2.5,0-3.5,0.8L84.5,78.5c-2.1,1.4-2.6,4.3-1.2,6.4
	c0.3,0.5,0.8,0.9,1.2,1.2l52.6,35.8c2,1,4.3,1,6.3,0.1L196,86.2c2.1-1.6,2.5-4.5,0.9-6.6C196.7,79.3,196.3,78.9,196,78.5z"/>
<path class="st0" d="M152.5,25.9L152.5,25.9v-1.5H151l-10.6-7.2c-0.2-0.1-0.4-0.2-0.6-0.2c-0.3-0.1-0.5,0-0.8,0.2l-10.6,7.2H127v1.5
	l0,0c0,0.3,0.2,0.6,0.4,0.8l11.6,7.9c0.2,0.1,0.4,0.2,0.6,0.2c0.3,0.1,0.6,0,0.8-0.2l11.6-7.9C152.3,26.5,152.5,26.2,152.5,25.9z"/>
<path class="st4" d="M152.1,22.8L140.5,15c-0.2-0.1-0.4-0.2-0.6-0.2c-0.3-0.1-0.5,0-0.8,0.2l-11.6,7.8c-0.5,0.3-0.6,0.9-0.3,1.4
	c0.1,0.1,0.2,0.2,0.3,0.3l11.6,7.9c0.2,0.1,0.4,0.2,0.6,0.2c0.3,0.1,0.6,0,0.8-0.2l11.6-7.9c0.5-0.3,0.6-0.9,0.3-1.4
	C152.3,23,152.2,22.9,152.1,22.8z"/>
<path class="st0" d="M152.3,169.9L152.3,169.9v-1.5h-1.4l-10.6-7.2c-0.2-0.1-0.4-0.2-0.6-0.2c-0.3-0.1-0.5,0-0.8,0.2l-10.6,7.2h-1.4
	v1.5l0,0c0,0.3,0.2,0.7,0.4,0.8l11.6,7.9c0.2,0.1,0.4,0.2,0.6,0.2c0.3,0.1,0.6,0,0.8-0.1l11.6-7.9
	C152.1,170.6,152.3,170.3,152.3,169.9z"/>
<path class="st4" d="M151.9,166.9l-11.6-7.9c-0.2-0.1-0.4-0.2-0.6-0.2c-0.3-0.1-0.5,0-0.8,0.2l-11.6,7.9c-0.5,0.3-0.6,0.9-0.3,1.4
	c0.1,0.1,0.2,0.2,0.3,0.3l11.6,7.9c0.4,0.2,0.9,0.2,1.4,0l11.6-7.9c0.4-0.3,0.5-1,0.2-1.4C152,167.1,151.9,167,151.9,166.9z"/>
<path class="st0" d="M255.1,98.1L255.1,98.1v-1.5h-1.5L243,89.4c-0.2-0.1-0.4-0.2-0.6-0.2c-0.3-0.1-0.5,0-0.8,0.2L231,96.6h-1.4v1.5
	l0,0c0,0.3,0.2,0.6,0.4,0.8l11.6,7.9c0.4,0.2,0.9,0.2,1.4,0l11.6-7.9C255,98.7,255.1,98.4,255.1,98.1z"/>
<path class="st4" d="M254.7,95.1l-11.6-7.9c-0.4-0.2-0.9-0.2-1.4,0l-11.6,7.9c-0.5,0.3-0.6,0.9-0.3,1.4c0.1,0.1,0.2,0.2,0.3,0.3
	l11.6,7.9c0.2,0.1,0.4,0.2,0.6,0.2c0.3,0.1,0.5,0,0.8-0.2l11.6-7.9c0.5-0.3,0.6-0.9,0.3-1.4C255,95.3,254.8,95.1,254.7,95.1z"/>
<path class="st0" d="M50.1,99.1L50.1,99.1v-1.5h-1.4l-10.6-7.2c-0.2-0.1-0.4-0.2-0.6-0.2c-0.3-0.1-0.5,0-0.8,0.2l-10.6,7.2h-1.4v1.5
	l0,0c0,0.3,0.2,0.6,0.4,0.8l11.6,7.9c0.4,0.2,0.9,0.2,1.4,0l11.6-7.9C50,99.7,50.1,99.4,50.1,99.1z"/>
<path class="st4" d="M49.7,96.1l-11.6-7.9c-0.4-0.2-0.9-0.2-1.4,0l-11.6,7.9c-0.5,0.3-0.6,0.9-0.3,1.4c0.1,0.1,0.2,0.2,0.3,0.3
	l11.6,7.9c0.2,0.1,0.4,0.2,0.6,0.2c0.3,0.1,0.5,0,0.8-0.2l11.6-7.9c0.5-0.3,0.6-0.9,0.3-1.4C50,96.3,49.8,96.1,49.7,96.1z"/>
<g>
	<path class="st5" d="M133.4,72.4c0.4-0.3,0.6-0.6,0.5-1c-0.1-0.4-0.5-0.8-1.1-1.3c-0.4-0.3-0.8-0.5-1.2-0.7
		c-0.4-0.1-0.8-0.2-1.1-0.2c-0.3,0-0.6,0.1-0.9,0.2c-0.2,0.1-0.3,0.2-0.4,0.4c-0.1,0.1-0.1,0.3,0,0.5c0.1,0.2,0.2,0.4,0.3,0.6
		c0.2,0.2,0.4,0.5,0.6,0.7l0.9,1c0.5,0.6,0.9,1.1,1.2,1.6c0.3,0.5,0.4,1,0.5,1.4c0,0.4-0.1,0.8-0.3,1.2c-0.2,0.4-0.6,0.7-1.2,1
		c-0.8,0.5-1.8,0.7-2.8,0.8c-1,0-2.1-0.1-3.3-0.5c-1.1-0.4-2.3-1-3.4-1.8c-1.2-0.8-2-1.6-2.5-2.4c-0.5-0.8-0.7-1.5-0.5-2.2
		c0.2-0.7,0.8-1.4,1.9-2l3.2,2.2c-0.4,0.3-0.6,0.5-0.7,0.9c-0.1,0.3,0,0.6,0.2,1c0.2,0.3,0.6,0.7,1.1,1c0.4,0.3,0.9,0.5,1.3,0.7
		c0.4,0.2,0.8,0.2,1.2,0.2c0.4,0,0.7-0.1,1-0.2c0.2-0.1,0.4-0.3,0.4-0.5c0-0.2-0.1-0.5-0.3-0.8c-0.2-0.3-0.5-0.7-0.9-1.1L126,72
		c-0.9-1-1.4-1.9-1.5-2.7c-0.1-0.8,0.4-1.5,1.4-2.1c0.8-0.5,1.8-0.7,2.9-0.7c1.1,0,2.2,0.1,3.4,0.5c1.2,0.4,2.3,0.9,3.3,1.6
		c1.1,0.7,1.8,1.5,2.3,2.2c0.4,0.7,0.6,1.4,0.4,2.1c-0.2,0.7-0.7,1.2-1.5,1.7L133.4,72.4z"/>
	<path class="st5" d="M147,94l-4.8-3.3l12.4-7.8l4.8,3.3c1.3,0.9,2.2,1.9,2.7,2.8c0.5,1,0.5,1.9,0.1,2.9c-0.4,0.9-1.2,1.8-2.5,2.6
		c-1.3,0.8-2.7,1.3-4.1,1.6c-1.5,0.2-2.9,0.2-4.4-0.2C149.7,95.5,148.3,94.9,147,94z M147.8,91.2l1.6,1.1c0.7,0.5,1.5,0.9,2.2,1.1
		c0.7,0.2,1.5,0.2,2.3,0.1c0.8-0.2,1.6-0.5,2.5-1.1c0.9-0.6,1.5-1.1,1.7-1.6c0.3-0.5,0.3-1,0-1.5s-0.8-1-1.5-1.5l-1.5-1L147.8,91.2z
		"/>
	<path class="st5" d="M145.1,81.7c0.4-0.3,0.6-0.7,0.6-1.1c-0.1-0.4-0.4-0.9-1.1-1.3c-0.4-0.3-0.8-0.5-1.2-0.7
		c-0.4-0.1-0.8-0.2-1.1-0.2c-0.3,0-0.6,0.1-0.9,0.2c-0.2,0.1-0.4,0.2-0.4,0.4c-0.1,0.2-0.1,0.3,0,0.5c0.1,0.2,0.2,0.4,0.3,0.6
		c0.2,0.2,0.4,0.5,0.6,0.8l0.9,1c0.5,0.6,0.9,1.1,1.2,1.6c0.3,0.5,0.4,1,0.4,1.5c0,0.4-0.1,0.9-0.4,1.2c-0.3,0.4-0.7,0.7-1.2,1
		c-0.9,0.5-1.8,0.7-2.8,0.7c-1,0-2.1-0.2-3.2-0.6c-1.1-0.4-2.2-1-3.4-1.9c-1.1-0.8-1.9-1.7-2.4-2.5c-0.5-0.8-0.6-1.6-0.4-2.3
		c0.2-0.7,0.9-1.4,1.9-2l3.1,2.3c-0.4,0.3-0.7,0.6-0.7,0.9c-0.1,0.3,0,0.7,0.2,1c0.2,0.4,0.6,0.7,1,1.1c0.4,0.3,0.9,0.6,1.3,0.7
		c0.4,0.2,0.8,0.3,1.2,0.3c0.4,0,0.7-0.1,1-0.2c0.3-0.1,0.4-0.3,0.4-0.5c0-0.2,0-0.5-0.2-0.8c-0.2-0.3-0.5-0.7-0.8-1.1l-1.1-1.2
		c-0.9-1-1.4-2-1.4-2.8c-0.1-0.8,0.4-1.5,1.4-2.1c0.8-0.5,1.8-0.7,2.9-0.7c1.1,0,2.2,0.2,3.3,0.6c1.1,0.4,2.2,1,3.3,1.8
		c1,0.8,1.8,1.6,2.2,2.3s0.5,1.5,0.3,2.2c-0.2,0.7-0.7,1.3-1.6,1.7L145.1,81.7z"/>
</g>
</svg>
