<?xml version="1.0" encoding="utf-8"?>
<!-- Generator: Adobe Illustrator 24.2.3, SVG Export Plug-In . SVG Version: 6.00 Build 0)  -->
<svg version="1.1" id="Layer_1" xmlns="http://www.w3.org/2000/svg" xmlns:xlink="http://www.w3.org/1999/xlink" x="0px" y="0px"
	 viewBox="0 0 279.2 209.6" style="enable-background:new 0 0 279.2 209.6;" xml:space="preserve">
<style type="text/css">
	.st0{fill:#424C66;}
	.st1{fill:#606C96;}
	.st2{fill:#7689B2;}
	.st3{fill:#00D4FF;}
	.st4{fill:#FFFFFF;}
</style>
<path class="st0" d="M279.2,111.6L279.2,111.6V94.9h-15.9L147.2,15.8c-4.7-2.6-10.4-2.7-15.2-0.2L15.6,94.9H0v16.7l0,0
	c0,3.7,1.9,7.1,4.9,9.2L132,207.4c4.7,2.6,10.4,2.7,15.2,0.2L274.3,121C277.4,118.9,279.2,115.4,279.2,111.6z"/>
<path class="st1" d="M274.3,88.8L147.2,2.2c-4.7-2.6-10.4-2.7-15.2-0.2L4.9,88.6c-5.1,3.5-6.5,10.5-3,15.6c0.8,1.2,1.8,2.2,3,3
	L132,193.8c4.7,2.6,10.4,2.7,15.2,0.2l127.1-86.6c5.1-3.5,6.5-10.5,3-15.6C276.5,90.6,275.4,89.6,274.3,88.8z"/>
<path class="st0" d="M227.2,102.2L227.2,102.2V91.8h-9.9l-72.4-49.3c-2.9-1.6-6.5-1.7-9.5-0.1L62.8,91.8h-9.7v10.4l0,0
	c0,2.3,1.2,4.4,3.1,5.7l79.3,54c2.9,1.6,6.5,1.7,9.5,0.1l79.3-54C226.1,106.7,227.3,104.6,227.2,102.2z"/>
<path class="st2" d="M224.2,88l-79.3-54c-2.9-1.6-6.5-1.7-9.5-0.1l-79.3,54c-3.2,2.2-4,6.5-1.9,9.7c0.5,0.7,1.1,1.4,1.9,1.9l79.3,54
	c2.9,1.6,6.5,1.7,9.5,0.1l79.3-54c3.2-2.2,4.1-6.5,1.9-9.7C225.6,89.1,224.9,88.5,224.2,88z"/>
<path class="st0" d="M184.2,93.1L184.2,93.1v-5.3h-5l-36.6-24.9c-0.6-0.4-1.4-0.6-2.1-0.6c-0.9-0.2-1.9,0-2.7,0.6l-36.7,25h-4.9V93
	l0,0c0,1.2,0.6,2.2,1.5,2.9l40.1,27.3c1.5,0.8,3.3,0.8,4.8,0.1L182.7,96C183.6,95.3,184.2,94.2,184.2,93.1z"/>
<path class="st3" d="M182.7,81.5l-40.1-27.3c-0.6-0.4-1.4-0.6-2.1-0.6c-0.9-0.2-1.9,0-2.7,0.6L97.7,81.5c-1.6,1.1-2,3.3-0.9,4.9
	c0.2,0.4,0.6,0.7,0.9,0.9l40.1,27.3c1.5,0.8,3.3,0.8,4.8,0.1l40.1-27.3c1.6-1.1,2.1-3.3,1-4.9C183.4,82.1,183,81.8,182.7,81.5z"/>
<path class="st4" d="M176.8,84.3l-2.1-1.4c0,0-0.1,0-0.1,0c0,0-0.1,0-0.1,0l-2.1,1.4c-0.1,0.1-0.1,0.2,0,0.3c0,0,0,0,0,0l2.1,1.4
	c0.1,0,0.2,0,0.3,0l2.1-1.4C176.9,84.5,176.9,84.4,176.8,84.3C176.8,84.3,176.8,84.3,176.8,84.3z"/>
<path class="st4" d="M107.3,84.3l-2.1-1.4c0,0-0.1,0-0.1,0c0,0-0.1,0-0.1,0l-2.1,1.4c-0.1,0.1-0.1,0.2,0,0.3c0,0,0,0,0,0L105,86
	c0.1,0,0.2,0,0.3,0l2.1-1.4C107.4,84.5,107.5,84.4,107.3,84.3C107.4,84.3,107.4,84.3,107.3,84.3z"/>
<path class="st4" d="M142.4,58.6l-2.1-1.4c0,0-0.1,0-0.1,0c0,0-0.1,0-0.1,0l-2.1,1.4c-0.1,0.1-0.1,0.2,0,0.3c0,0,0,0,0,0l2.1,1.4
	c0.1,0,0.2,0,0.3,0l2.1-1.4C142.5,58.8,142.5,58.7,142.4,58.6C142.5,58.6,142.4,58.6,142.4,58.6z"/>
<path class="st4" d="M142.4,108.8l-2.1-1.4c0,0-0.1,0-0.1,0c0,0-0.1,0-0.1,0l-2.1,1.4c-0.1,0.1-0.1,0.2,0,0.3c0,0,0,0,0,0l2.1,1.4
	c0.1,0,0.2,0,0.3,0l2.1-1.4C142.5,109,142.5,108.9,142.4,108.8C142.5,108.8,142.4,108.8,142.4,108.8z"/>
</svg>
