<?xml version="1.0" encoding="utf-8"?>
<!-- Generator: Adobe Illustrator 24.2.3, SVG Export Plug-In . SVG Version: 6.00 Build 0)  -->
<svg version="1.1" id="Layer_1" xmlns="http://www.w3.org/2000/svg" xmlns:xlink="http://www.w3.org/1999/xlink" x="0px" y="0px"
	 viewBox="0 0 279.2 209.6" style="enable-background:new 0 0 279.2 209.6;" xml:space="preserve">
<style type="text/css">
	.st0{fill:#424C66;}
	.st1{fill:#606C96;}
	.st2{fill:#00D4FF;}
	.st3{enable-background:new    ;}
	.st4{fill:#FFFFFF;}
</style>
<path class="st0" d="M279.2,111.6L279.2,111.6V94.9h-15.9L147.2,15.8c-4.7-2.6-10.4-2.7-15.2-0.2L15.6,94.9H0v16.7l0,0
	c0,3.7,1.9,7.1,4.9,9.2L132,207.4c4.7,2.6,10.4,2.7,15.2,0.2L274.3,121C277.4,118.9,279.2,115.4,279.2,111.6z"/>
<path class="st1" d="M274.3,88.8L147.2,2.2C142.5-0.4,136.8-0.5,132,2L4.9,88.6c-5.1,3.5-6.5,10.5-3,15.6c0.8,1.2,1.8,2.2,3,3
	L132,193.8c4.7,2.6,10.4,2.7,15.2,0.2l127.1-86.6c5.1-3.5,6.5-10.5,3-15.6C276.5,90.6,275.4,89.6,274.3,88.8z"/>
<path class="st0" d="M224.8,102.2L224.8,102.2V91.8h-10l-72.9-49.7c-3-1.6-6.5-1.7-9.5-0.1L59.3,91.8h-9.8v10.5l0,0
	c0,2.3,1.2,4.5,3.1,5.8l79.8,54.4c3,1.6,6.5,1.7,9.5,0.1l79.8-54.4C223.6,106.8,224.8,104.6,224.8,102.2z"/>
<path class="st2" d="M221.7,87.9l-79.8-54.4c-3-1.6-6.5-1.7-9.5-0.1L52.5,87.8c-3.2,2.2-4.1,6.6-1.9,9.8c0.5,0.7,1.1,1.4,1.9,1.9
	l79.8,54.4c3,1.6,6.5,1.7,9.5,0.1l79.8-54.4c3.2-2.2,4.1-6.5,1.9-9.8C223.1,89.1,222.5,88.4,221.7,87.9z"/>
<g class="st3">
	<path class="st4" d="M153.4,112.6c-5.2,4.1-13.2,4.9-17.9,1.8l-24.2-16.2c-5.2-3.5-4.7-10.1,1.2-14.7c4.6-3.6,11.2-5,16.4-3.6
		c0.2-0.2,0.4-0.3,0.6-0.5c6.5-5.1,16.6-6.1,22.4-2.2c3.9,2.6,4.9,6.8,3.2,10.8c1.8,0.1,3.4,0.5,4.7,1.4c3.5,2.3,3.1,6.7-0.8,9.8
		c-0.9,0.7-1.9,1.3-3,1.7C158.9,104.1,158,109,153.4,112.6z M144.7,96.9l0.9-10.8c0-0.6-0.6-1.1-1.5-1l-14.7,1.5
		c-1.4,0.1-2.2,1.4-1.3,2.1l4.3,2.9l-8.3,6.5c-0.7,0.5-0.7,1.2-0.1,1.6l3.2,2.1c0.6,0.4,1.6,0.3,2.2-0.2l8.3-6.5l4.3,2.9
		C142.9,98.6,144.6,98,144.7,96.9z"/>
</g>
</svg>
