<svg id="Layer_1" data-name="Layer 1" xmlns="http://www.w3.org/2000/svg" viewBox="0 0 279.17 252.69"><defs><style>.cls-1{fill:#dde1ed;}.cls-2{fill:#00d4ff;}.cls-3{fill:#635bff;}.cls-4{fill:#edeff8;}.cls-5{fill:#c8cdde;}.cls-6{fill:#0a2540;}</style></defs><path class="cls-1" d="M396,267.86V225H317.22L264,188.76a11,11,0,0,0-6.67-2,11,11,0,0,0-8.49,1.74L195.39,225H116.88v59.55h0a11.15,11.15,0,0,0,4.9,9.18l127.09,86.6a16.1,16.1,0,0,0,15.16.22L391.13,294a11.18,11.18,0,0,0,4.91-9.4h0V267.86Z" transform="translate(-116.88 -129.83)"/><path class="cls-2" d="M238.29,337.09l.4-.27-.19-.13a2.49,2.49,0,0,0-.9-3L209.31,314.4a2.44,2.44,0,0,0-1.48-.44,2.47,2.47,0,0,0-1.89.39l-.11.07h0s0,0,0,0l-.4.27.19.13a2.49,2.49,0,0,0,.9,3l28.29,19.27a2.42,2.42,0,0,0,1.48.44,2.47,2.47,0,0,0,1.89-.39l.11-.08,0,0Z" transform="translate(-116.88 -129.83)"/><path class="cls-3" d="M237.68,350l.41-.27-.19-.13a2.51,2.51,0,0,0-.91-3l-28.28-19.27a2.53,2.53,0,0,0-1.49-.44,2.48,2.48,0,0,0-1.89.39l-.11.08,0,0s0,0,0,.05l-.4.27.18.13a2.51,2.51,0,0,0,.91,3L234.15,350a2.52,2.52,0,0,0,1.49.43,2.43,2.43,0,0,0,1.89-.39l.11-.07h0A.08.08,0,0,0,237.68,350Z" transform="translate(-116.88 -129.83)"/><path class="cls-3" d="M365,280h-.22v.1a1.7,1.7,0,0,0-.95,1.43l.27,15.58a.87.87,0,0,0,.24.6.82.82,0,0,0,.69.39h.06v0s0,0,0,0h.23V298a1.7,1.7,0,0,0,.95-1.42L366,281a.87.87,0,0,0-.24-.6.8.8,0,0,0-.69-.4H365Z" transform="translate(-116.88 -129.83)"/><path class="cls-3" d="M372.68,273h-.22v.1a1.71,1.71,0,0,0-.94,1.43l.27,15.58a.79.79,0,0,0,.24.6.8.8,0,0,0,.68.39h.07v0l0,0H373V291a1.72,1.72,0,0,0,1-1.42L373.69,274a.79.79,0,0,0-.24-.6.77.77,0,0,0-.68-.4h-.09Z" transform="translate(-116.88 -129.83)"/><path class="cls-3" d="M380.37,266h-.22v.1a1.72,1.72,0,0,0-.95,1.43l.28,15.58a1.09,1.09,0,0,0,.92,1h.06v0l0,0h.22V284a1.71,1.71,0,0,0,.94-1.42L381.38,267a.79.79,0,0,0-.24-.6.8.8,0,0,0-.68-.4h-.09Z" transform="translate(-116.88 -129.83)"/><path class="cls-4" d="M391.13,218.62,264,132a16.09,16.09,0,0,0-15.16-.22L121.79,218.4a11.25,11.25,0,0,0,0,18.59l127.09,86.6a11,11,0,0,0,6.67,2,11,11,0,0,0,8.49-1.74l127.09-86.6A11.25,11.25,0,0,0,391.13,218.62Z" transform="translate(-116.88 -129.83)"/><path class="cls-5" d="M375.1,219.62l-112-77.19a14.07,14.07,0,0,0-13.36-.19L137.83,219.42a10.09,10.09,0,0,0,0,16.57l112,77.18a14.1,14.1,0,0,0,13.36.2l112-77.19A10.08,10.08,0,0,0,375.1,219.62Z" transform="translate(-116.88 -129.83)"/><path class="cls-6" d="M249.77,313.17a14.1,14.1,0,0,0,13.36.2l85.77-59.14a7.42,7.42,0,0,0-2.4-2.67l-85-57.91a7.42,7.42,0,0,0-4.46-1.31,7.35,7.35,0,0,0-5.68,1.17l-85,57.9a7.65,7.65,0,0,0-2.38,2.64Z" transform="translate(-116.88 -129.83)"/></svg>