<?xml version="1.0" encoding="utf-8"?>
<!-- Generator: Adobe Illustrator 24.2.3, SVG Export Plug-In . SVG Version: 6.00 Build 0)  -->
<svg version="1.1" id="Layer_1" xmlns="http://www.w3.org/2000/svg" xmlns:xlink="http://www.w3.org/1999/xlink" x="0px" y="0px"
	 viewBox="0 0 512 512" style="enable-background:new 0 0 512 512;" xml:space="preserve">
<style type="text/css">
	.st0{fill:#F0FCFC;}
	.st1{fill:#00D4FF;}
	.st2{fill:#635BFF;}
</style>
<path class="st0" d="M416,512H96c-53,0-96-43-96-96V96C0,43,43,0,96,0h320c53,0,96,43,96,96v320C512,469,469,512,416,512z"/>
<g>
	<path class="st1" d="M143.3,175.6c-6.3,0-11.5-5.2-11.5-11.5v-11.5c0-19,15.5-34.5,34.5-34.5h11.5c6.3,0,11.5,5.2,11.5,11.5
		c0,6.3-5.2,11.5-11.5,11.5h-11.5c-6.3,0-11.5,5.2-11.5,11.5v11.5C154.8,170.4,149.7,175.6,143.3,175.6z"/>
	<path class="st1" d="M350.2,175.6c-6.3,0-11.5-5.2-11.5-11.5v-11.5c0-6.3-5.2-11.5-11.5-11.5h-11.5c-6.3,0-11.5-5.2-11.5-11.5
		c0-6.3,5.2-11.5,11.5-11.5h11.5c19,0,34.5,15.5,34.5,34.5v11.5C361.6,170.4,356.5,175.6,350.2,175.6z"/>
	<path class="st1" d="M269.7,141.1h-46c-6.3,0-11.5-5.2-11.5-11.5c0-6.3,5.2-11.5,11.5-11.5h46c6.3,0,11.5,5.2,11.5,11.5
		C281.2,135.9,276.1,141.1,269.7,141.1z"/>
	<path class="st1" d="M246.7,347.9h-23c-6.3,0-11.5-5.2-11.5-11.5s5.2-11.5,11.5-11.5h23c6.3,0,11.5,5.2,11.5,11.5
		C258.2,342.8,253.1,347.9,246.7,347.9z"/>
	<path class="st1" d="M177.8,347.9h-11.5c-19,0-34.5-15.5-34.5-34.5V302c0-6.3,5.2-11.5,11.5-11.5c6.3,0,11.5,5.2,11.5,11.5v11.5
		c0,6.3,5.2,11.5,11.5,11.5h11.5c6.3,0,11.5,5.2,11.5,11.5S184.1,347.9,177.8,347.9z"/>
	<path class="st1" d="M143.3,267.5c-6.3,0-11.5-5.2-11.5-11.5v-46c0-6.3,5.2-11.5,11.5-11.5c6.3,0,11.5,5.2,11.5,11.5v46
		C154.8,262.3,149.7,267.5,143.3,267.5z"/>
	<path class="st1" d="M350.2,244.5c-6.3,0-11.5-5.2-11.5-11.5v-23c0-6.3,5.2-11.5,11.5-11.5c6.3,0,11.5,5.2,11.5,11.5v23
		C361.6,239.4,356.5,244.5,350.2,244.5z"/>
</g>
<path class="st2" d="M393.8,332.1L285.4,223.7c-1.4-1.4-3.3-2.2-5.3-2.2c-4.1,0-7.5,3.4-7.5,7.5v157.4c0,4.1,3.4,7.5,7.5,7.5
	c2,0,3.9-0.8,5.4-2.3l45-46.7h58c4.1,0,7.5-3.4,7.5-7.5C396,335.4,395.2,333.5,393.8,332.1z"/>
</svg>
