<?xml version="1.0" encoding="utf-8"?>
<!-- Generator: Adobe Illustrator 24.2.3, SVG Export Plug-In . SVG Version: 6.00 Build 0)  -->
<svg version="1.1" id="bold" xmlns="http://www.w3.org/2000/svg" xmlns:xlink="http://www.w3.org/1999/xlink" x="0px" y="0px"
	 viewBox="0 0 512 512" style="enable-background:new 0 0 512 512;" xml:space="preserve">
<style type="text/css">
	.st0{fill:#F0FCFC;}
	.st1{fill:#00D4FF;}
	.st2{fill:#635BFF;}
</style>
<path class="st0" d="M416,512H96c-53,0-96-43-96-96V96C0,43,43,0,96,0h320c53,0,96,43,96,96v320C512,469,469,512,416,512z"/>
<path class="st1" d="M314.7,245.3c-38.2,0-69.3,31.1-69.3,69.3s31.1,69.3,69.3,69.3s69.3-31.1,69.3-69.3S352.9,245.3,314.7,245.3z
	 M349.4,297.7L312,340.4c-1.9,2.2-4.7,3.5-7.7,3.6c-0.1,0-0.2,0-0.4,0c-2.8,0-5.5-1.1-7.5-3.1l-21.3-21.3c-4.2-4.2-4.2-10.9,0-15.1
	s10.9-4.2,15.1,0l13.3,13.3l29.8-34.1c3.9-4.4,10.6-4.9,15.1-1C352.8,286.5,353.2,293.2,349.4,297.7L349.4,297.7z"/>
<path class="st2" d="M305.9,160.3l-85.3-32c-1.3-0.4-2.6-0.4-3.8,0l-85.3,32c-2,0.8-3.4,2.8-3.4,5v68.6c0,97.3,88.6,117.8,89.5,118
	c0.4,0.1,0.7,0.1,1.2,0.1s0.8,0,1.2-0.1c0.2,0,4.4-1,10.8-3.4c-4.3-10.4-6.6-21.9-6.6-33.8c0-48.2,37.8-87.8,85.3-90.6v-58.8
	C309.3,163.1,308,161.1,305.9,160.3L305.9,160.3z"/>
</svg>
