<?xml version="1.0" encoding="utf-8"?>
<!-- Generator: Adobe Illustrator 24.2.3, SVG Export Plug-In . SVG Version: 6.00 Build 0)  -->
<svg version="1.1" id="bold" xmlns="http://www.w3.org/2000/svg" xmlns:xlink="http://www.w3.org/1999/xlink" x="0px" y="0px"
	 viewBox="0 0 512 512" style="enable-background:new 0 0 512 512;" xml:space="preserve">
<style type="text/css">
	.st0{fill:#F0FCFC;}
	.st1{fill:#00D4FF;}
	.st2{fill:#635BFF;}
</style>
<path class="st0" d="M416,512H96c-53,0-96-43-96-96V96C0,43,43,0,96,0h320c53,0,96,43,96,96v320C512,469,469,512,416,512z"/>
<g>
	<path class="st1" d="M197.5,197.5c-12.9,0-23.4,10.5-23.4,23.4v38c0,4.8,3.9,8.8,8.8,8.8c4.8,0,8.8-3.9,8.8-8.8v-14.6h11.7v14.6
		c0,4.8,3.9,8.8,8.8,8.8c4.8,0,8.8-3.9,8.8-8.8v-38C220.9,208,210.4,197.5,197.5,197.5z M191.6,226.7v-5.8c0-3.2,2.6-5.8,5.8-5.8
		c3.2,0,5.9,2.6,5.9,5.8v5.8H191.6z"/>
	<path class="st1" d="M323.3,267.7c-4.8,0-8.8-3.9-8.8-8.8v-52.6c0-4.8,3.9-8.8,8.8-8.8s8.8,3.9,8.8,8.8v52.6
		C332.1,263.8,328.1,267.7,323.3,267.7z"/>
	<path class="st1" d="M253.1,267.7c-4.8,0-8.8-3.9-8.8-8.8v-52.6c0-4.8,3.9-8.8,8.8-8.8h14.6c12.9,0,23.4,10.5,23.4,23.4
		c0,12.9-10.5,23.4-23.4,23.4h-5.8v14.6C261.8,263.8,257.9,267.7,253.1,267.7L253.1,267.7z M261.8,226.7h5.8c3.2,0,5.9-2.6,5.9-5.8
		c0-3.2-2.6-5.8-5.8-5.8h-5.8L261.8,226.7L261.8,226.7z"/>
</g>
<path class="st2" d="M375.9,139H136.1c-11.3,0-20.5,9.2-20.5,20.5v146.2c0,11.3,9.2,20.5,20.5,20.5h96.5v23.4h-23.4
	c-6.5,0-11.7,5.2-11.7,11.7s5.2,11.7,11.7,11.7h93.6c6.5,0,11.7-5.2,11.7-11.7s-5.2-11.7-11.7-11.7h-23.4v-23.4h96.5
	c11.3,0,20.5-9.2,20.5-20.5V159.5C396.4,148.2,387.2,139,375.9,139z M373,302.8H139V162.4h234V302.8z"/>
</svg>
